# xmcd
#
# Track frame offsets: 
#        150
#        36637
#        82525
#        99400
#        134475
#        156050
#
# Disc length: 3856 seconds
#
# Revision: 4
# Processed by: cddbd v1.5.2PL0 Copyright (c) Steve Scherf et al.
# Submitted via: ExactAudioCopy v1.0b3
#
DISCID=410f0e06
DTITLE=MAHLER - Otto Klemperer, Philharmonia, C.Ludwig, F.Wunderlich /
DTITLE=Das Lied von der Erde
DYEAR=1966
DGENRE=Vocal
TTITLE0=1.Das Trinklied von jammer der Erde
TTITLE1=2.Der Einsame im Herbst
TTITLE2=3.Von der Jugend
TTITLE3=4.Von der Schoenheit
TTITLE4=5.Der Trunkene im Fruehling
TTITLE5=6.Der Abscheid
EXTD=
EXTT0=and New Philharmonia \norchestras\nOtto Klemperer - conductor\n
EXTT1=
EXTT2=
EXTT3=
EXTT4=
EXTT5=
PLAYORDER=
